<svg xmlns="http://www.w3.org/2000/svg" xmlns:xlink="http://www.w3.org/1999/xlink" width="364.146" height="287.48" viewBox="0 0 364.146 287.48">
  <defs>
    <linearGradient id="linear-gradient" x1="356.73" y1="0.5" x2="357.73" y2="0.5" gradientUnits="objectBoundingBox">
      <stop offset="0" stop-color="#3076a1"/>
      <stop offset="1" stop-color="#48c9b6"/>
    </linearGradient>
    <linearGradient id="linear-gradient-2" x1="197.527" y1="0.5" x2="198.527" y2="0.5" xlink:href="#linear-gradient"/>
    <linearGradient id="linear-gradient-3" x1="263.063" y1="0.5" x2="264.063" y2="0.5" xlink:href="#linear-gradient"/>
    <linearGradient id="linear-gradient-4" x1="173.908" y1="0.5" x2="174.908" y2="0.5" xlink:href="#linear-gradient"/>
    <linearGradient id="linear-gradient-5" x1="0.983" y1="0.961" x2="0.233" y2="0.108" xlink:href="#linear-gradient"/>
    <linearGradient id="linear-gradient-6" x1="0.079" y1="2.027" x2="0.485" y2="0.07" gradientUnits="objectBoundingBox">
      <stop offset="0" stop-color="#c9c4c1"/>
      <stop offset="1" stop-color="#fff6de"/>
    </linearGradient>
    <linearGradient id="linear-gradient-7" x1="-0.602" y1="0.5" x2="0.398" y2="0.5" xlink:href="#linear-gradient-6"/>
    <linearGradient id="linear-gradient-8" y1="0.5" x2="1" y2="0.5" gradientUnits="objectBoundingBox">
      <stop offset="0" stop-color="#d1d7e0"/>
      <stop offset="1" stop-color="#ebebff"/>
    </linearGradient>
  </defs>
  <g id="Grupo_760" data-name="Grupo 760" transform="translate(-1006.146 -99.833)">
    <path id="Rectángulo_111" data-name="Rectángulo 111" d="M40.005,0H51.577A40.006,40.006,0,0,1,91.583,40.006V51.577A40.005,40.005,0,0,1,51.577,91.583H40.005A40.005,40.005,0,0,1,0,51.577V40.005A40.005,40.005,0,0,1,40.005,0Z" transform="translate(1138.302 140.218)" fill="#f5ffff" opacity="0.95"/>
    <rect id="Rectángulo_112" data-name="Rectángulo 112" width="42.401" height="2.095" transform="translate(1162.892 210.95)" fill="#96bfe6"/>
    <rect id="Rectángulo_113" data-name="Rectángulo 113" width="30.39" height="2.095" transform="translate(1168.898 217.55)" fill="#96bfe6"/>
    <rect id="Rectángulo_114" data-name="Rectángulo 114" width="125.341" height="147.122" rx="54.752" transform="translate(1244.95 171.981)" fill="#f5ffff" opacity="0.95"/>
    <g id="Grupo_617" data-name="Grupo 617">
      <rect id="Rectángulo_115" data-name="Rectángulo 115" width="9.941" height="1.841" transform="translate(1301.781 258.774)" fill="#4598e6"/>
    </g>
    <g id="Grupo_618" data-name="Grupo 618">
      <rect id="Rectángulo_116" data-name="Rectángulo 116" width="57.846" height="3.564" transform="translate(1264.04 275.645)" fill="#96bfe6"/>
      <rect id="Rectángulo_117" data-name="Rectángulo 117" width="46.778" height="3.565" transform="translate(1264.04 292.759)" fill="#96bfe6"/>
      <rect id="Rectángulo_118" data-name="Rectángulo 118" width="27.423" height="3.565" transform="translate(1264.04 284.202)" fill="#96bfe6"/>
    </g>
    <g id="Grupo_619" data-name="Grupo 619">
      <path id="Trazado_1395" data-name="Trazado 1395" d="M1337.019,186.653v1.8h10.6V198.4h1.8V186.653ZM1265.035,198.4h1.8v-9.949h10.6v-1.8h-12.4Zm82.585,51.334v9.952h-10.6v1.8h12.4V249.736Zm-80.784,0h-1.8v11.752h12.4v-1.8h-10.6Z" fill="#4598e6"/>
    </g>
    <g id="Grupo_622" data-name="Grupo 622">
      <g id="Grupo_620" data-name="Grupo 620">
        <path id="Trazado_1396" data-name="Trazado 1396" d="M1343.808,296.585a10.6,10.6,0,1,1,10.6-10.6A10.612,10.612,0,0,1,1343.808,296.585Zm0-19.15a8.549,8.549,0,1,0,8.549,8.549A8.559,8.559,0,0,0,1343.808,277.435Z" fill="#4598e6"/>
      </g>
      <g id="Grupo_621" data-name="Grupo 621">
        <path id="Trazado_1397" data-name="Trazado 1397" d="M1343.132,290.157l-4.816-4.816,1.451-1.451,3.365,3.365,4.718-4.718,1.451,1.451Z" fill="#4598e6"/>
      </g>
    </g>
    <path id="Trazado_1398" data-name="Trazado 1398" d="M1350.183,379.262c0,4.447-77.015,8.051-172.018,8.051s-172.019-3.6-172.019-8.051,77.015-8.051,172.019-8.051S1350.183,374.816,1350.183,379.262Z" fill="#c6e1e2"/>
    <rect id="Rectángulo_119" data-name="Rectángulo 119" width="61.73" height="52.964" transform="translate(1153.228 143.643)" fill="#edeafe" opacity="0.95"/>
    <g id="Grupo_627" data-name="Grupo 627">
      <path id="Trazado_1399" data-name="Trazado 1399" d="M1207.672,175.885a15.193,15.193,0,0,0-9.223-8.617c-.821-.273-2.288-.751-3.833-1.251-2.784-.9-5.826-1.879-5.826-1.879h-9.608s-3.327,1.115-6.863,2.355l0,0c-3.257,1.142-6.686,2.387-7.844,2.969-2.415,1.206-6.478,9.826-7.3,10.813a76.012,76.012,0,0,0-4.163,7.617h10.35c1.094-1.878,1.936-3.335,1.936-3.335s.655,1.436,1.449,3.335H1199.9c.524-2.205.852-4.984.852-4.984s1.775,2.415,3.714,4.984h9.556A95.97,95.97,0,0,1,1207.672,175.885Z" fill="#385369"/>
      <g id="Grupo_623" data-name="Grupo 623">
        <path id="Trazado_1400" data-name="Trazado 1400" d="M1185.131,137.737s7.512,1.184,6.368,12.937-7.774,10.791-8.217,10.779-6.656.214-7.141-14.136C1176.141,147.317,1175.93,136.705,1185.131,137.737Z" fill="#eea886"/>
      </g>
      <g id="Grupo_624" data-name="Grupo 624">
        <path id="Trazado_1401" data-name="Trazado 1401" d="M1191.615,147.354s.823-.878,1.125.011-1.123,4.857-1.174,5.043c0,0-.15.345-.347.155A42.957,42.957,0,0,1,1191.615,147.354Z" fill="#eea886"/>
      </g>
      <g id="Grupo_625" data-name="Grupo 625">
        <path id="Trazado_1402" data-name="Trazado 1402" d="M1176.344,147.206s-.806-.895-1.125-.011,1.016,4.877,1.076,5.064c0,0,.144.348.345.162A43.085,43.085,0,0,0,1176.344,147.206Z" fill="#eea886"/>
      </g>
      <g id="Grupo_626" data-name="Grupo 626">
        <path id="Trazado_1403" data-name="Trazado 1403" d="M1191.612,149.157l-1.076,1.438a28.612,28.612,0,0,0-.142-3.646c-.173-.5-.437-2.005-.581-2.361s-6.451-2.123-12.022.516c0,0,.245,2.267-.289,2.469s-.272,3.691-.272,3.691l-.884-1s-1.353-9.043-1.019-9.985,1.4-6.61,12.828-3.246c0,0,3.563-.754,4.278,1.706S1191.612,149.157,1191.612,149.157Z" fill="#434343"/>
      </g>
      <path id="Trazado_1404" data-name="Trazado 1404" d="M1189.721,163.926c0-.01-.963-.473-.963-.473-.468-1.047-.121-5.462-.121-5.462s-9.568-2.435-9.294-.573-.825,6.188-.825,6.188l-4.908,2.437s5.23,14.042,11.24,12.231,8.28-12.737,8.28-12.737Z" fill="#eea886"/>
      <path id="Trazado_1405" data-name="Trazado 1405" d="M1179.48,159.486a5.675,5.675,0,0,0,4.218,1.99c1.759,0,3.023-.493,4.776-2.2a5.036,5.036,0,0,1-4.765,3.549S1180.805,163.191,1179.48,159.486Z" fill="#a77860"/>
    </g>
    <g id="Grupo_684" data-name="Grupo 684">
      <g id="Grupo_632" data-name="Grupo 632">
        <g id="Grupo_631" data-name="Grupo 631">
          <g id="Grupo_630" data-name="Grupo 630">
            <g id="Grupo_629" data-name="Grupo 629">
              <g id="Grupo_628" data-name="Grupo 628">
                <path id="Trazado_1406" data-name="Trazado 1406" d="M1151.859,206.637s5.52,2.7,4.155,10.046-1.969,8.335-.442,11.206,3.328,15.114,1.954,17.435-17.007-10.2-19.175-20.7,1.374-15.175,2.626-16.916S1146.985,204.163,1151.859,206.637Z" fill="#0e2d3d"/>
              </g>
            </g>
          </g>
        </g>
      </g>
      <g id="Grupo_633" data-name="Grupo 633">
        <path id="Trazado_1407" data-name="Trazado 1407" d="M1149.776,377.116h1.251v-5.9a16.771,16.771,0,0,1,3.994,3.9c1.54,2.262,3.657,2.069,6.881,1.925s3.079-1.444,2.791-3.272-3.561-2.406-4.62-2.695-3.461-4.429-4.234-5.437a13.8,13.8,0,0,1-1.612-2.7s-.6-2.454-3.585,0-2.117,7.17-1.78,7.6S1149.776,377.116,1149.776,377.116Z" fill="#163342"/>
      </g>
      <g id="Grupo_634" data-name="Grupo 634">
        <path id="Trazado_1408" data-name="Trazado 1408" d="M1156.079,371.071c1.107.722,3.994,0,3.994,0-.818-1.058-5.846-8.132-5.846-8.132-3.056-1.78-4.263.67-4.263.67C1151.21,363.99,1154.973,370.35,1156.079,371.071Z" fill="#eea886"/>
      </g>
      <g id="Grupo_638" data-name="Grupo 638">
        <g id="Grupo_637" data-name="Grupo 637">
          <g id="Grupo_636" data-name="Grupo 636">
            <g id="Grupo_635" data-name="Grupo 635">
              <path id="Trazado_1409" data-name="Trazado 1409" d="M1188.253,262.22s2,.385,2.687-.557a6.529,6.529,0,0,1,2.322-1.6c.547-.254,1.937-1.659,2.264-.972s-2.18,2.427-2.632,2.9,2.457.678,2.96,1.135-.116,5.257-2.1,4.884-3.85-2.081-4.212-2.078a12.227,12.227,0,0,1-1.452-.215Z" fill="#eea886"/>
            </g>
          </g>
        </g>
      </g>
      <g id="Grupo_642" data-name="Grupo 642">
        <g id="Grupo_641" data-name="Grupo 641">
          <g id="Grupo_640" data-name="Grupo 640">
            <g id="Grupo_639" data-name="Grupo 639">
              <path id="Trazado_1410" data-name="Trazado 1410" d="M1195.412,262.921s5.988,1.547,6.3,1.984.21.757-.356.636-5.829-1.328-5.829-1.328,6.78,3.023,7.114,3.325c.2.177.033.807-.276.77s-7.2-2.648-7.2-2.648,6.326,2.833,6.53,3.17a.477.477,0,0,1-.6.657c-.483-.178-6.5-2.476-6.5-2.476s4.474,2.352,4.48,2.738c0,.237-.112.788-1.248.145s-3.974-1.878-3.974-1.878Z" fill="#eea886"/>
            </g>
          </g>
        </g>
      </g>
      <g id="Grupo_643" data-name="Grupo 643">
        <path id="Trazado_1411" data-name="Trazado 1411" d="M1133.565,377.519h.77v-4.331a9.421,9.421,0,0,1,1.994,3.478c.626,2.069,2.866,2.683,6.282,2.587s3.465-1.445,3.176-3.466-3.176-3.08-3.176-3.08a54.082,54.082,0,0,1-4.523-5.942,4.5,4.5,0,0,0-3.693.757c-1.624,1.311-1.119,4.271-1.071,5.041S1133.565,377.519,1133.565,377.519Z" fill="#163342"/>
      </g>
      <g id="Grupo_644" data-name="Grupo 644">
        <path id="Trazado_1412" data-name="Trazado 1412" d="M1135.923,274.354a30.22,30.22,0,0,0-5.176,11.572c-1.1,6.279.653,27.355.6,30.459s-2.935,10.826-2.357,16.673S1131.85,368,1131.85,368l6.238-1.238s-.361-29.665,0-32.119,1.085-11.4,1.23-12.41,9.164-27.544,9.164-32.071S1145.739,266.967,1135.923,274.354Z" fill="#1d3b54"/>
      </g>
      <g id="Grupo_645" data-name="Grupo 645">
        <path id="Trazado_1413" data-name="Trazado 1413" d="M1156.373,276.423s6.688,25.526,7.482,29.063,1.944,6.454,1.944,7.955a52.6,52.6,0,0,1-1.294,9.079l-8.493,40.621h-8.089s4.507-24.37,4.628-29.135,3.8-11.558,3.076-13.579-11.62-25.335-11.62-25.335S1135.754,269.012,1156.373,276.423Z" fill="#1d3b54"/>
      </g>
      <g id="Grupo_646" data-name="Grupo 646">
        <path id="Trazado_1414" data-name="Trazado 1414" d="M1142.611,372.707l-4.523-5.942-3.693.757a16.757,16.757,0,0,0,2.789,4.661C1139.31,374.553,1142.611,372.707,1142.611,372.707Z" fill="#eea886"/>
      </g>
      <g id="Grupo_648" data-name="Grupo 648">
        <g id="Grupo_647" data-name="Grupo 647">
          <path id="Trazado_1415" data-name="Trazado 1415" d="M1153.611,233.043a8.348,8.348,0,0,1,4.841,2.492,32,32,0,0,1,4.585,6.984c.545,1.19,8.2,12.224,8.592,12.472s4.242,1.533,6.79,2.391c3.931,1.323,11.813,4.187,11.813,4.187l-1.566,4.956s-14.82-4.849-18.531-5.764c-4.538-1.118-14.986-14.522-14.986-14.522S1147.36,237.111,1153.611,233.043Z" fill="#285173"/>
        </g>
      </g>
      <g id="Grupo_650" data-name="Grupo 650">
        <g id="Grupo_649" data-name="Grupo 649">
          <path id="Trazado_1416" data-name="Trazado 1416" d="M1148.8,231.108a37.329,37.329,0,0,0,4.813,1.935c1.24.248,6.052,6.5,6.9,8.781s0,5.705-1.736,9.724-.1,5.358-.893,9.376-.538,19.051-.389,21.284-23.221,5.616-27.835,1.548c0,0,3.124-13.548,6.821-17.415.8-.836.716-6.409.17-7.8s-6.7-11.758-6.7-11.758-.452-10.516,2.232-12.6c2.332-1.811,8.686-2.456,9.828-2.853A19.49,19.49,0,0,1,1148.8,231.108Z" fill="#feee00"/>
        </g>
      </g>
      <g id="Grupo_652" data-name="Grupo 652">
        <g id="Grupo_651" data-name="Grupo 651">
          <path id="Trazado_1417" data-name="Trazado 1417" d="M1150.5,226.986s-.107.984-.23,2.313c-.047.526-.1,1.107-.147,1.7a40.152,40.152,0,0,0-.187,4.673s-3.713,3.72-7.933-4.341a11.073,11.073,0,0,0,.438-7.85C1141.109,218.954,1150.5,226.986,1150.5,226.986Z" fill="#eea886"/>
        </g>
      </g>
      <g id="Grupo_653" data-name="Grupo 653">
        <path id="Trazado_1418" data-name="Trazado 1418" d="M1160.893,253.03s.893-5.943-.057-9.557a23.07,23.07,0,0,1-1.7,7.52Z" fill="#183c59"/>
      </g>
      <g id="Grupo_654" data-name="Grupo 654">
        <path id="Trazado_1419" data-name="Trazado 1419" d="M1139.155,231.9s2.553,7.541,9.563,6.987,3.323-6.368,3.323-6.368a15.4,15.4,0,0,0-2.239-1.1c-.491-.1-7.75-.187-7.75-.187Z" fill="#eea886"/>
      </g>
      <g id="Grupo_655" data-name="Grupo 655">
        <path id="Trazado_1420" data-name="Trazado 1420" d="M1152.041,232.522a69.078,69.078,0,0,1,3.672,20.508c0,10.351.3,27.212,1.577,32.537s4.931,21.792,4.931,21.792l2.859-1.479s-6.876-26.281-7.395-28.176.394-21.916.887-23.592,2.59-9.139,2.264-11.209c-.411-2.61-2.853-6.471-6.8-9.791Z" fill="#285173"/>
      </g>
      <g id="Grupo_656" data-name="Grupo 656">
        <path id="Trazado_1421" data-name="Trazado 1421" d="M1140.54,231.586a105.6,105.6,0,0,1,3.438,16.665c1.157,9.358-3.549,52.8-6.705,62.658l-12.227-1.972s2.632-30.705,6.2-36.293,4.71-10.531.853-22.194,1.691-17.439,1.691-17.439S1139.468,231.707,1140.54,231.586Z" fill="#285173"/>
      </g>
      <g id="Grupo_657" data-name="Grupo 657">
        <path id="Trazado_1422" data-name="Trazado 1422" d="M1153.731,262.573l-14.826,25.679-16.481-9.515,14.182-26.05Z" fill="#616161"/>
      </g>
      <g id="Grupo_658" data-name="Grupo 658">
        <path id="Trazado_1423" data-name="Trazado 1423" d="M1151.944,263.456l-13.167,22.806-14.638-8.451,12.6-23.136Z" fill="#e0cec7"/>
      </g>
      <g id="Grupo_659" data-name="Grupo 659">
        <path id="Trazado_1424" data-name="Trazado 1424" d="M1147.087,261.407l.924-1.6-5.918-3.417-1.155,1.467Z" fill="#616161"/>
      </g>
      <g id="Grupo_665" data-name="Grupo 665">
        <g id="Grupo_664" data-name="Grupo 664">
          <g id="Grupo_663" data-name="Grupo 663">
            <g id="Grupo_662" data-name="Grupo 662">
              <g id="Grupo_661" data-name="Grupo 661">
                <g id="Grupo_660" data-name="Grupo 660">
                  <path id="Trazado_1425" data-name="Trazado 1425" d="M1146.38,279.627a3.053,3.053,0,0,1-.969-.14s-.518-.3-.9-.492a3,3,0,0,0-.3-.135,5.563,5.563,0,0,1-1.653-.7,37.609,37.609,0,0,1-2.977-3.142l1.1-1.667.8-1.707s4.874.314,5.533.667a1.879,1.879,0,0,1,.183.111,7.1,7.1,0,0,1,1.031,1.055c.094.08.973.94.942,1.307a1.2,1.2,0,0,1-.584,1.011,2.874,2.874,0,0,1-.614,1.454,1.785,1.785,0,0,1-.859,1.321S1146.922,279.493,1146.38,279.627Z" fill="#eea886"/>
                </g>
              </g>
            </g>
          </g>
        </g>
      </g>
      <g id="Grupo_667" data-name="Grupo 667">
        <g id="Grupo_666" data-name="Grupo 666">
          <path id="Trazado_1426" data-name="Trazado 1426" d="M1136.334,233.043s-4.5-1.29-7.082,3.671a22.642,22.642,0,0,0-2.912,9.5c-.325,2.287-1.795,8.532-1.944,9.177s-3.477,8.336-1.951,11.024,17.117,10.654,17.018,11.25,2.7-6.013,2.7-6.013-6.3-3.515-7.338-4.6c-1.678-1.757-5.216-3.651-4.489-5.832.854-2.561,3.419-11.2,4.014-12.468S1140.129,234.655,1136.334,233.043Z" fill="#285173"/>
        </g>
      </g>
      <g id="Grupo_672" data-name="Grupo 672">
        <g id="Grupo_671" data-name="Grupo 671">
          <g id="Grupo_670" data-name="Grupo 670">
            <g id="Grupo_669" data-name="Grupo 669">
              <g id="Grupo_668" data-name="Grupo 668">
                <path id="Trazado_1427" data-name="Trazado 1427" d="M1151.058,207.451s8.016,2.519,3.664,16.351-15.3-1.6-14.152-10.03S1151.058,207.451,1151.058,207.451Z" fill="#eea987"/>
              </g>
            </g>
          </g>
        </g>
      </g>
      <g id="Grupo_677" data-name="Grupo 677">
        <g id="Grupo_676" data-name="Grupo 676">
          <g id="Grupo_675" data-name="Grupo 675">
            <g id="Grupo_674" data-name="Grupo 674">
              <g id="Grupo_673" data-name="Grupo 673">
                <path id="Trazado_1428" data-name="Trazado 1428" d="M1155.542,215.522a18.086,18.086,0,0,1-10.648,4.4s-2.562,3-2.759,4.182c0,0-5.946-10.136,1.364-16.212S1158.229,213.018,1155.542,215.522Z" fill="#0e2d3d"/>
              </g>
            </g>
          </g>
        </g>
      </g>
      <g id="Grupo_682" data-name="Grupo 682">
        <g id="Grupo_681" data-name="Grupo 681">
          <g id="Grupo_680" data-name="Grupo 680">
            <g id="Grupo_679" data-name="Grupo 679">
              <g id="Grupo_678" data-name="Grupo 678">
                <path id="Trazado_1429" data-name="Trazado 1429" d="M1144.974,220.194c-.052-1.007-.672-3.3-2.168-2.656s.091,5.306,1.084,5.019C1143.89,222.557,1145.1,222.576,1144.974,220.194Z" fill="#eea987"/>
              </g>
            </g>
          </g>
        </g>
      </g>
      <g id="Grupo_683" data-name="Grupo 683">
        <path id="Trazado_1430" data-name="Trazado 1430" d="M1150.274,229.3c-.047.526-.1,1.107-.147,1.7,0,0-3.537-.211-5.9-5.473C1144.379,225.757,1146.971,229.564,1150.274,229.3Z" fill="#a77860"/>
      </g>
    </g>
    <g id="Grupo_690" data-name="Grupo 690">
      <g id="Grupo_685" data-name="Grupo 685">
        <path id="Trazado_1431" data-name="Trazado 1431" d="M1062.506,355.792c5.139-3.614,11.154-28.8,11.513-43.8.184-7.685,2.455-10.887,4.459-13.711,1.916-2.7,3.571-5.032,2.607-10.387-1.842-10.232,3-14.649,3.05-14.693l-.561-.639c-.215.189-5.258,4.745-3.326,15.483.9,5-.584,7.1-2.463,9.744-1.972,2.779-4.426,6.238-4.616,14.183-.385,16.1-6.534,39.882-11.152,43.13Z" fill="url(#linear-gradient)"/>
      </g>
      <g id="Grupo_686" data-name="Grupo 686">
        <path id="Trazado_1432" data-name="Trazado 1432" d="M1051.733,348.445c-.485-1.1-.987-2.237-1.555-3.436-2.936-6.2-5.537-7.218-9.846-8.909-1.053-.414-2.246-.882-3.556-1.471-6.172-2.773-4.977-6.861-3.923-10.468.148-.5.295-1.007.422-1.505.543-2.121-.5-3.185-2.079-4.8a18,18,0,0,1-3.759-5.041c-1.232-2.575-.6-3.956.14-4.661,1.566-1.484,5.176-1.21,8.585.651a12.411,12.411,0,0,1,2.854,2.457c2.173,2.276,4.877,5.107,11.717,5.139,3.9.019,6.036.557,7.143,1.8,1.255,1.41,1.019,3.523.691,6.446-.113,1.011-.242,2.157-.32,3.395a19.81,19.81,0,0,0,3.939,12.769c2.6,3.1,5.815,9.539,4.43,13.5a4.742,4.742,0,0,1-3.86,3.107,11.018,11.018,0,0,1-2.173.235C1055.8,357.659,1054.048,353.692,1051.733,348.445Zm-15.978-38.89c-3.044-1.662-6.309-2-7.593-.78-.977.925-.516,2.511.042,3.678a17.027,17.027,0,0,0,3.6,4.812c1.652,1.686,2.956,3.017,2.3,5.6-.13.507-.28,1.019-.43,1.533-1.05,3.591-2.042,6.984,3.455,9.454,1.292.58,2.475,1.045,3.519,1.454,4.349,1.707,7.223,2.835,10.3,9.337.573,1.21,1.077,2.352,1.565,3.457,2.658,6.026,4.263,9.664,10.076,8.488a3.945,3.945,0,0,0,3.227-2.553c1.221-3.492-1.7-9.6-4.28-12.675a20.3,20.3,0,0,1-4.135-13.368c.079-1.259.209-2.416.323-3.437.3-2.7.522-4.659-.481-5.787-.918-1.03-2.926-1.5-6.512-1.515-7.2-.033-10.044-3.01-12.328-5.4a11.634,11.634,0,0,0-2.646-2.3Z" fill="url(#linear-gradient-2)"/>
      </g>
      <g id="Grupo_687" data-name="Grupo 687">
        <path id="Trazado_1433" data-name="Trazado 1433" d="M1062.664,362.566l.849-.045c-.042-.8-1.113-19.594-8.66-25.1-8.281-6.035-10.891-12.521-12.134-16.875-1.466-5.13-8.922-6.5-9.239-6.557l-.148.837c.072.013,7.251,1.336,8.569,5.953,1.278,4.475,3.959,11.139,12.451,17.329C1061.576,343.378,1062.654,362.375,1062.664,362.566Z" fill="url(#linear-gradient-3)"/>
      </g>
      <g id="Grupo_688" data-name="Grupo 688">
        <path id="Trazado_1434" data-name="Trazado 1434" d="M1061.227,366.794c-1.776-.885-1.711-4.441-1.614-9.823.123-6.8.292-16.117-3.268-24.684-3.783-9.1-.409-11.762,2.853-14.334,3.653-2.882,7.1-5.6.481-17.887-3.042-5.641-4.008-9.458-3.039-12.009.957-2.522,3.642-3.5,6.485-4.545,4.908-1.8,10.47-3.832,9.751-14.218-.22-3.184.154-5.142,1.178-6.162,1.113-1.108,2.752-.988,4.65-.849,2.868.21,6.117.447,8.946-3.245.295-.923,3-9.158,6.237-10.568a2.293,2.293,0,0,1,1.98.011h0c2.234,1.069,3.53,2.336,3.963,3.875.754,2.676-1.207,5.695-3.477,9.19-3.567,5.492-7.61,11.718-3.416,19.126,5.544,9.8,2.615,13.223-1.438,17.967a31.946,31.946,0,0,0-6.713,10.824c-1.415,4.041,1,7.895,3.333,11.621,2.929,4.674,5.956,9.508-.419,13.7-10.54,6.935-20.949,29.571-21.053,29.8l-.043.094-.082.064c-1.942,1.522-3.355,2.248-4.42,2.248A1.943,1.943,0,0,1,1061.227,366.794Zm26.006-32.718c5.681-3.737,3.125-7.817.166-12.541-2.327-3.715-4.965-7.926-3.415-12.353a32.666,32.666,0,0,1,6.869-11.1c3.971-4.648,6.595-7.719,1.344-17-4.448-7.858-.072-14.6,3.444-20.008,2.157-3.322,4.02-6.191,3.371-8.5-.363-1.289-1.511-2.381-3.512-3.338h0a1.456,1.456,0,0,0-1.274,0c-3,1.308-5.76,10.026-5.787,10.114l-.022.07-.045.059c-3.119,4.122-6.784,3.853-9.73,3.637-1.76-.128-3.15-.23-3.988.6s-1.129,2.621-.93,5.5c.763,11.024-5.375,13.27-10.307,15.075-2.77,1.014-5.163,1.89-5.983,4.048-.874,2.3.077,5.9,2.993,11.3,6.963,12.912,3.066,15.985-.7,18.957-3.152,2.486-6.13,4.834-2.595,13.34,3.629,8.732,3.459,18.15,3.334,25.026-.085,4.694-.152,8.4,1.143,9.047.758.377,2.208-.261,4.311-1.9C1066.76,362.3,1076.729,340.986,1087.233,334.076Z" fill="url(#linear-gradient-4)"/>
      </g>
      <path id="Trazado_1435" data-name="Trazado 1435" d="M1044.59,268.131c5.365-1.839,4.25,8.5,6.517,16.15s25.216,3.337,15.583,22.494,12.183,6.406,5.667,23.123-.567,34.6-7.65,30.047-3.98-25.6-11.346-28.1-8.569-5.418-1.275-12.218-19.112-13.551-12.6-27.282S1038.392,270.256,1044.59,268.131Z" fill="url(#linear-gradient-5)"/>
      <g id="Grupo_689" data-name="Grupo 689">
        <path id="Trazado_1436" data-name="Trazado 1436" d="M1062.238,358.847c.674-2.862,6.435-28.046,1.06-31.09-4.738-2.683-4.622-13.119-3.882-22.973.654-8.724-10.549-12.8-11.027-12.97l-.284.8c.111.039,11.069,4.031,10.463,12.105-.759,10.12-.84,20.86,4.311,23.777,4.081,2.311.324,22.551-1.469,30.155Z" fill="#fff"/>
      </g>
      <path id="Trazado_1437" data-name="Trazado 1437" d="M1082.477,349.879l-7.659,29.057H1057.7l-7.659-29.057Z" fill="url(#linear-gradient-6)"/>
      <path id="Trazado_1438" data-name="Trazado 1438" d="M1082.477,349.879s-16.861,3.166-16.861,29.058H1057.7l-7.659-29.058Z" fill="url(#linear-gradient-7)"/>
    </g>
    <path id="Rectángulo_120" data-name="Rectángulo 120" d="M26.471,0H40.815A26.471,26.471,0,0,1,67.286,26.471v7.657A26.471,26.471,0,0,1,40.815,60.6H26.472A26.472,26.472,0,0,1,0,34.128V26.471A26.471,26.471,0,0,1,26.471,0Z" transform="translate(1238.88 106.303)" fill="#f5ffff" opacity="0.95"/>
    <g id="Grupo_691" data-name="Grupo 691">
      <rect id="Rectángulo_121" data-name="Rectángulo 121" width="5.337" height="0.988" transform="translate(1269.599 155.442)" fill="#4598e6"/>
    </g>
    <g id="Grupo_707" data-name="Grupo 707">
      <g id="Grupo_694" data-name="Grupo 694">
        <g id="Grupo_693" data-name="Grupo 693">
          <g id="Grupo_692" data-name="Grupo 692">
            <path id="Trazado_1439" data-name="Trazado 1439" d="M1277.094,101s4.3,2.361,2.934,8.167-1.884,6.572-.775,8.918,2.085,12.177.9,13.975-13.177-8.772-14.51-17.229,1.668-12.048,2.732-13.389S1273.3,98.84,1277.094,101Z" fill="#344052"/>
          </g>
        </g>
      </g>
      <g id="Grupo_695" data-name="Grupo 695">
        <path id="Trazado_1440" data-name="Trazado 1440" d="M1285.167,148.98h-4.6c-.222-2.271-.428-3.851-.386-4.085.068-.386-4.581-12.58-5.014-13.588s-2.141-3.711-2.364-6.257,3.1-3.576,3.1-3.576c4.482.8,6,7,6,7s1.882,12.574,2.834,16.112A22.5,22.5,0,0,1,1285.167,148.98Z" fill="#eea886"/>
      </g>
      <path id="Trazado_1441" data-name="Trazado 1441" d="M1282.85,131.507l-6.855,2.89s-6.3-15.637-1.02-13.891C1280.241,122.247,1282.61,125.519,1282.85,131.507Z" fill="#eb4747"/>
      <g id="Grupo_696" data-name="Grupo 696">
        <path id="Trazado_1442" data-name="Trazado 1442" d="M1281.324,138.868c-.2,1.553-1.02,7.052-.837,8.537.031.245.133.808.285,1.575h-16.529c.439-1.57.839-2.959,1.082-3.767.8-2.662.033-3.375-.372-5.505-.158-.834-.713-2.417-1.319-4.206-.2-.6-.411-1.22-.611-1.845a38.05,38.05,0,0,1-1.273-5.9c-1-6.359,3.893-6.97,3.893-6.97,1.817-.335,4.992-1.316,4.992-1.316l4.973,1.034a5.411,5.411,0,0,1,1.163.688l0,0a9.053,9.053,0,0,1,1.119.98,30.138,30.138,0,0,1,2.7,3.91c.33.539.662,1.091.975,1.634,1.011,1.75,1.73,3.161,1.707,4.753C1283.259,134.04,1281.524,137.316,1281.324,138.868Z" fill="#eb4747"/>
      </g>
      <path id="Trazado_1443" data-name="Trazado 1443" d="M1275.608,120.507s3.115,5.324,1.957,5.722-7.265-.947-9.65-5.977A9.231,9.231,0,0,1,1275.608,120.507Z" fill="#eea886"/>
      <path id="Trazado_1444" data-name="Trazado 1444" d="M1275.162,122.938s-2.767,1.171-5.273-2.683c0,0,.673-4.378-.75-6.91s6.222,3.036,6.222,3.036-.124.521-.252,1.292c-.066.394-.133.853-.185,1.34-.043.406-.076.832-.09,1.256A6.858,6.858,0,0,0,1275.162,122.938Z" fill="#eea886"/>
      <path id="Trazado_1445" data-name="Trazado 1445" d="M1268.291,128.9c-.57,2.93-4.657,6.6-4.657,6.6-.2-.6-.411-1.22-.611-1.844A26.737,26.737,0,0,0,1268.291,128.9Z" fill="#393d63"/>
      <g id="Grupo_697" data-name="Grupo 697">
        <path id="Trazado_1446" data-name="Trazado 1446" d="M1267.266,131.234c-.259,1.067-1.451,11.883-1.322,12.252.076.211.654,2.713,1.232,5.494h-5.336a13.1,13.1,0,0,1-.792-4.122c.341-3.648-.9-15.278-.9-15.278s-1.107-7.035,4.73-7.914c0,0,3.449.454,3.657,3S1267.525,130.169,1267.266,131.234Z" fill="#eea886"/>
      </g>
      <path id="Trazado_1447" data-name="Trazado 1447" d="M1259.721,132.728l7.245,1.692s5.747-11.158.571-13.195C1262.081,119.077,1258.413,126.641,1259.721,132.728Z" fill="#eb4747"/>
      <g id="Grupo_700" data-name="Grupo 700">
        <g id="Grupo_699" data-name="Grupo 699">
          <g id="Grupo_698" data-name="Grupo 698">
            <path id="Trazado_1448" data-name="Trazado 1448" d="M1276.425,101.615s6.3,2.311,2.3,13.176-12.137-1.855-10.906-8.531S1276.425,101.615,1276.425,101.615Z" fill="#eea987"/>
          </g>
        </g>
      </g>
      <g id="Grupo_703" data-name="Grupo 703">
        <g id="Grupo_702" data-name="Grupo 702">
          <g id="Grupo_701" data-name="Grupo 701">
            <path id="Trazado_1449" data-name="Trazado 1449" d="M1279.695,108.219a14.429,14.429,0,0,1-8.655,3.1s-1.247,3.038-1.448,3.97c0,0-5.269-9.045.788-13.615S1281.932,106.324,1279.695,108.219Z" fill="#344052"/>
          </g>
        </g>
      </g>
      <g id="Grupo_706" data-name="Grupo 706">
        <g id="Grupo_705" data-name="Grupo 705">
          <g id="Grupo_704" data-name="Grupo 704">
            <path id="Trazado_1450" data-name="Trazado 1450" d="M1271.76,111.976c0-.805-.412-2.655-1.629-2.2s-.127,4.235.675,4.043C1270.806,113.819,1271.767,113.88,1271.76,111.976Z" fill="#eea987"/>
          </g>
        </g>
      </g>
      <path id="Trazado_1451" data-name="Trazado 1451" d="M1274.841,120.083a6.7,6.7,0,0,1-4.138-3.732c2.406,3.109,4.221,2.662,4.221,2.662C1274.881,119.419,1274.878,119.672,1274.841,120.083Z" fill="#a77860"/>
    </g>
    <g id="Grupo_708" data-name="Grupo 708">
      <path id="Trazado_1452" data-name="Trazado 1452" d="M1288.516,117.27v.967h5.691v5.34h.966V117.27Zm-38.643,6.307h.967v-5.34h5.69v-.967h-6.657Zm44.334,27.558v5.342h-5.691v.967h6.657v-6.309Zm-43.367,0h-.967v6.309h6.657v-.967h-5.69Z" fill="#4598e6"/>
    </g>
    <g id="Grupo_709" data-name="Grupo 709">
      <rect id="Rectángulo_122" data-name="Rectángulo 122" width="7.128" height="1.32" transform="translate(1180.529 200.717)" fill="#4598e6"/>
    </g>
    <g id="Grupo_710" data-name="Grupo 710">
      <path id="Trazado_1453" data-name="Trazado 1453" d="M1205.455,149.732v1.29h7.6v7.134h1.291v-8.424Zm-51.615,8.424h1.291v-7.134h7.6v-1.29h-8.891Zm59.215,36.808V202.1h-7.6v1.291h8.891v-8.427Zm-57.924,0h-1.291v8.427h8.891V202.1h-7.6Z" fill="#4598e6"/>
    </g>
    <g id="Grupo_726" data-name="Grupo 726">
      <g id="Grupo_711" data-name="Grupo 711">
        <path id="Trazado_1454" data-name="Trazado 1454" d="M1343.318,248.911h-6.029c-.11-.241-.2-.451-.273-.619-1.789-4.224-11.009-13.911-11.009-13.911v.022a.017.017,0,0,0-.005.01v.011c-.005.015-.01.026-.016.041a.687.687,0,0,1-.021.079.2.2,0,0,0-.01.052c-.005.016-.01.027-.016.043-.378,1.411-2.235,8.443-3.164,14.272h-40.8c-.094-.54-.2-1.054-.33-1.532a32.792,32.792,0,0,1-.787-4.219c-.006-.068-.016-.131-.021-.2-.032-.247-.058-.493-.079-.735a38.6,38.6,0,0,1-.068-6.753c-.116.247-.94,3.269-2.02,7-.594,2.046-1.265,4.308-1.932,6.438H1267.1l12.09-34.879c.268-.21,3.406-1.726,5.694-2.818,2.335-1.112,5.153-2.744,7.7-4.14,1.3-.714,2.529-1.359,3.594-1.847l.163-.074v-.005c1.758-.8,2.928-1.333,2.928-1.333h.005l.761-.073c2.456-.236,10.075-.95,12.625-1.1.21-.016.389-.021.525-.026a2.126,2.126,0,0,1,.257,0,32.164,32.164,0,0,1,3.957,1.354c.078.026.157.057.236.089l.294.11c.178.068.362.137.545.21.368.147.751.294,1.134.446.131.052.267.1.4.157,4.129,1.638,8.863,3.668,9.986,4.476.745.53,3.059,4.891,5.74,10.285A300.8,300.8,0,0,1,1343.318,248.911Z" fill="#decbc4"/>
      </g>
      <g id="Grupo_712" data-name="Grupo 712">
        <path id="Trazado_1455" data-name="Trazado 1455" d="M1313.379,201.433c-.109,5.484-10.727,8.485-10.727,8.485s-4.442-5.569-3.381-6.1c.417-.21.586-1.041.638-1.973a19.274,19.274,0,0,0-.061-2.487c-.031-.388-.061-.638-.061-.638s1.517-1.6,3.447-3.507c3.373-3.336,8.01-7.608,8.017-5.908a1.545,1.545,0,0,1-.039.322C1310.4,193.45,1313.379,201.433,1313.379,201.433Z" fill="#eea886"/>
      </g>
      <g id="Grupo_713" data-name="Grupo 713">
        <path id="Trazado_1456" data-name="Trazado 1456" d="M1309.289,193.4h0c-.021.032-.472.706-1.24,1.673-1.63,2.051-4.695,5.419-8.14,6.772a19.274,19.274,0,0,0-.061-2.487,5.549,5.549,0,0,1-1.054-.127,32.835,32.835,0,0,1,2.308-3.381l2.132-.637Z" fill="#a77860"/>
      </g>
      <g id="Grupo_714" data-name="Grupo 714">
        <path id="Trazado_1457" data-name="Trazado 1457" d="M1311.328,189.377c-.919,2-1.791,3.447-2.039,4.02h0a7.109,7.109,0,0,1-1.24,1.673c-1.75,1.885-5,4.372-8.2,4.285a5.549,5.549,0,0,1-1.054-.127,5.017,5.017,0,0,1-3.655-2.525c-6.625-12.97-1.828-23.576-1.828-23.576s18.114-5.122,20.948.331C1316.247,177.283,1313.486,184.682,1311.328,189.377Z" fill="#eea886"/>
      </g>
      <g id="Grupo_715" data-name="Grupo 715">
        <path id="Trazado_1458" data-name="Trazado 1458" d="M1293.311,173.128s-1.682-.093-2.1-3.283c-.411-3.151.421-4.024.421-4.024s7.477-3.13,10.163-3.537,9.289-.8,10.836.972c0,0,3.761-.874,4.786,5.369,1.625,9.9-5.539,19.521-5.539,19.521s.061-6.47-1.366-7.328-2.658,1.182-2.658,1.182l-2.919.522s4.433-9.572-.885-9.927S1296.355,173.683,1293.311,173.128Z" fill="#e8734d"/>
      </g>
      <g id="Grupo_716" data-name="Grupo 716">
        <path id="Trazado_1459" data-name="Trazado 1459" d="M1307.935,179.42c.277-2.85,5.432-3.938,5.087-.951s-2.884,5.859-4.056,5.758S1307.723,181.593,1307.935,179.42Z" fill="#eea886"/>
      </g>
      <g id="Grupo_717" data-name="Grupo 717">
        <path id="Trazado_1460" data-name="Trazado 1460" d="M1338.108,220.014c-1.679-5.379-3.133-9.634-3.778-10.1-1.128-.808-10.07-3.269-14.315-4.933-.137-.052-.273-.1-.4-.157-.383-.152-.766-.3-1.134-.446-.183-.073-.367-.142-.545-.21l-.294-.11c-.079-.032-.158-.063-.236-.089-.006,0-.011.015-.021.021a69.572,69.572,0,0,0-4.686,5.992c-4.387,6.234-10.1,16.335-9.225,25.66.283,2.991.629,7.289,1.212,12.111.042.383.089.766.142,1.154h19.793c.241-5.048.671-11.7,1.322-14.272.006-.016.011-.027.016-.043a.2.2,0,0,1,.01-.052c.006-.026.016-.052.021-.079s.011-.026.016-.041v-.011a.017.017,0,0,1,.005-.01s4.791,7.488,5.038,14.508H1343.5C1342.894,242.389,1340.989,229.244,1338.108,220.014Z" fill="#3c4145"/>
      </g>
      <g id="Grupo_718" data-name="Grupo 718">
        <path id="Trazado_1461" data-name="Trazado 1461" d="M1296.265,205.29s-1.5,4.974-3.426,17.4v.005c-.069.415-.132.84-.2,1.275-.005.048-.016.1-.021.152-.047.284-.089.578-.131.872-.005.036-.011.068-.016.1-.031.194-.063.393-.089.6-.074.488-.147.992-.22,1.5-.725,5.068-1.69,13.123-2.671,21.718h-7.824a36.527,36.527,0,0,1-.793-6.05.863.863,0,0,0-.036.1c-.625,1.732-1.312,3.615-2.01,5.447l-.189.5h-13.486l13.433-35.141c.268-.21,3.726-2.073,6.014-3.159,2.388-1.139,5.405-2.54,8.081-3.773,1.28-.593,2.482-1.144,3.5-1.611Z" fill="#3c4145"/>
      </g>
      <g id="Grupo_719" data-name="Grupo 719">
        <path id="Trazado_1462" data-name="Trazado 1462" d="M1314.458,217.579l-5.169,2.918,2.209,2.251-4.848,26.163h-1.826c-.672-5.289-1.055-10.038-1.354-13.265-1.349-14.42,13.04-30.682,13.932-31.673.692.262,1.437.551,2.209.855Z" fill="#51565c"/>
      </g>
      <g id="Grupo_720" data-name="Grupo 720">
        <path id="Trazado_1463" data-name="Trazado 1463" d="M1296.344,205.153s-1.931,6.3-4.177,22.04c-.724,5.063-1.695,13.123-2.676,21.718h-.761l-1-24.72,2.46-2.666L1288,218.791l4.681-11.953c1.28-.593,2.482-1.144,3.5-1.611Z" fill="#51565c"/>
      </g>
      <g id="Grupo_721" data-name="Grupo 721">
        <path id="Trazado_1464" data-name="Trazado 1464" d="M1317.662,204.034l-4.283-2.6s-.12,2.349-10.727,8.485l3.012,8.484Z" fill="#f5e2d9"/>
      </g>
      <g id="Grupo_722" data-name="Grupo 722">
        <path id="Trazado_1465" data-name="Trazado 1465" d="M1299.83,202.616s.167,2.536,2.822,7.3l-5.879,7.664-.429-12.43Z" fill="#f5e2d9"/>
      </g>
      <g id="Grupo_723" data-name="Grupo 723">
        <path id="Trazado_1466" data-name="Trazado 1466" d="M1302.668,209.918s1.139,4.557.729,5.833c0,0-2.505.911-4.306-.228A20,20,0,0,1,1302.668,209.918Z" fill="#d44040"/>
      </g>
      <g id="Grupo_724" data-name="Grupo 724">
        <path id="Trazado_1467" data-name="Trazado 1467" d="M1301.287,225.414a114.552,114.552,0,0,0-.756,23.5h-5.022q-.1-1.486-.194-3.106c-.934-16.209,4.8-30.692,4.8-30.692l2.556-.64S1301.843,221.635,1301.287,225.414Z" fill="#d44040"/>
      </g>
      <g id="Grupo_725" data-name="Grupo 725">
        <path id="Trazado_1468" data-name="Trazado 1468" d="M1281.037,235.514c-.192,3.889-.164,7.344-.164,7.344v0c0,.019-.005.124-.013.3-.008-.066-.016-.131-.024-.2-.622,1.732-1.312,3.614-2.007,5.446a58.349,58.349,0,0,1-.157-5.935c.279-10.905,3.709-16.623,3.709-16.623C1281.594,227.751,1281.217,231.829,1281.037,235.514Z" fill="#2d3133"/>
      </g>
    </g>
    <g id="Grupo_750" data-name="Grupo 750">
      <g id="Grupo_727" data-name="Grupo 727">
        <path id="Trazado_1469" data-name="Trazado 1469" d="M1234.1,248.958l-16.045,8.82-16.113-25.356,19.488-6.769Z" fill="#292c47"/>
      </g>
      <g id="Grupo_728" data-name="Grupo 728">
        <path id="Trazado_1470" data-name="Trazado 1470" d="M1233.081,248.2l-15,8.248-15.068-23.713,18.225-6.331Z" fill="#fff"/>
      </g>
      <g id="Grupo_729" data-name="Grupo 729">
        <path id="Trazado_1471" data-name="Trazado 1471" d="M1238.576,243.762s-2.793-1.336-4.018-2.034-4.38-1.656-4.634-1.884-9.347-.788-9.9-1.264-1.087,1.115,1.269,1.631,5.636,1.778,5.815,2.7-2.42,1.14-2.683,1.9.074.589.446.751,3.093-1.343,4.289-.915,3.024-.165,3.94.149,5.374,1.813,5.374,1.813Z" fill="#eea886"/>
      </g>
      <g id="Grupo_730" data-name="Grupo 730">
        <path id="Trazado_1472" data-name="Trazado 1472" d="M1217.271,254.6s-2.346-2.111-3.481-2.995-3.266-3.481-3.58-3.633-4.383-8.5-5.046-8.835.628-1.46,2.032.56,3.87,4.619,4.808,4.429.131-2.725.743-3.268.584-.16.882.128-.062,3.438.807,4.4,1.022,2.914,1.675,3.656,3.8,4.358,3.8,4.358Z" fill="#eea886"/>
      </g>
      <g id="Grupo_731" data-name="Grupo 731">
        <path id="Trazado_1473" data-name="Trazado 1473" d="M1267.8,367.459s.507,3.522.571,4.051,5.645-.311,5.645-.311l.452-4.194S1268.495,366.962,1267.8,367.459Z" fill="#424773"/>
      </g>
      <g id="Grupo_732" data-name="Grupo 732">
        <path id="Trazado_1474" data-name="Trazado 1474" d="M1268.309,371.063a15.057,15.057,0,0,1-3.479,3.047c-1.711.926-4.4,1.292-5.41,2.25-.73.691-2.66,3.667,4.445,3.607s10.53.421,11.291-.721-1.1-8.422-1.1-8.422S1272.372,371.429,1268.309,371.063Z" fill="#292c47"/>
      </g>
      <g id="Grupo_733" data-name="Grupo 733">
        <path id="Trazado_1475" data-name="Trazado 1475" d="M1227.8,367.459s.507,3.522.571,4.051,5.645-.311,5.645-.311l.452-4.194S1228.5,366.962,1227.8,367.459Z" fill="#424773"/>
      </g>
      <g id="Grupo_734" data-name="Grupo 734">
        <path id="Trazado_1476" data-name="Trazado 1476" d="M1228.312,371.063a15.059,15.059,0,0,1-3.479,3.047c-1.711.926-8.005,1.685-9.017,2.643-.73.692-1.944,3.474,8.052,3.214,7.1-.185,10.53.421,11.291-.721s-1.1-8.422-1.1-8.422S1232.473,371.471,1228.312,371.063Z" fill="#292c47"/>
      </g>
      <g id="Grupo_735" data-name="Grupo 735" opacity="0.9">
        <path id="Trazado_1477" data-name="Trazado 1477" d="M1263.175,276.943s5.245,8.334,4.854,15.867,1.9,15.757,2.69,23.626c.878,8.773,4.473,29.541,4.6,34.233s-.558,19.677-.558,19.677l-7.2.165s-6.044-36.308-7.609-40.013-9.328-30.116-9.588-33.079S1263.175,276.943,1263.175,276.943Z" fill="#000707"/>
      </g>
      <g id="Grupo_736" data-name="Grupo 736" opacity="0.9">
        <path id="Trazado_1478" data-name="Trazado 1478" d="M1235.564,278.072s-3.953,20.647-4.475,25.257-.869,22.312-1.13,25.193-1.739,37.708-3.131,41.989h9.2s7.062-25.317,7.062-37.3,5.455-26.041,8.977-33.944,11.583-8.09,13.748-22.754C1265.815,276.517,1238.495,273.422,1235.564,278.072Z" fill="#000707"/>
      </g>
      <g id="Grupo_737" data-name="Grupo 737">
        <path id="Trazado_1479" data-name="Trazado 1479" d="M1254.423,206.881s-7.04-2.63-10.287,2.729-2.933,16.088.616,17.408,8.879.629,10.7-2.724,3.457-8.2,3.378-11.441S1256.271,207.816,1254.423,206.881Z" fill="#eea886"/>
      </g>
      <g id="Grupo_738" data-name="Grupo 738">
        <path id="Trazado_1480" data-name="Trazado 1480" d="M1245.516,227.263a6.089,6.089,0,0,1-.191,2.837c-.485.937,9.121.961,9.121.961a63.161,63.161,0,0,1,2.258-9.4C1258.182,217.362,1245.516,227.263,1245.516,227.263Z" fill="#eea886"/>
      </g>
      <g id="Grupo_739" data-name="Grupo 739">
        <path id="Trazado_1481" data-name="Trazado 1481" d="M1256.7,221.665s-.663,1.093-3.369.669-6.008-4.025-7.138-4.42-1.14-1.059-1.14-1.059l-.708,1.033-1.2.076s1.095-3.22-.556-4.534,1.713-10.424,10.392-7.391c0,0,6.665,1.838,6.423,5.629S1258.195,219.777,1256.7,221.665Z" fill="#3a3f47"/>
      </g>
      <g id="Grupo_740" data-name="Grupo 740">
        <path id="Trazado_1482" data-name="Trazado 1482" d="M1244.754,229.988s.031-1.789.842-1.961,8.951-.954,9.946-.563v2.084S1253.624,230.729,1244.754,229.988Z" fill="#e2d2ca"/>
      </g>
      <g id="Grupo_741" data-name="Grupo 741">
        <path id="Trazado_1483" data-name="Trazado 1483" d="M1245.236,215.476c.152-.635,1.769-2.452,2.388-.507s-.936,4.563-1.8,4.339S1244.851,217.089,1245.236,215.476Z" fill="#eea886"/>
      </g>
      <g id="Grupo_742" data-name="Grupo 742">
        <path id="Trazado_1484" data-name="Trazado 1484" d="M1212.449,251.125a.027.027,0,0,1,.013,0C1212.406,251.149,1212.4,251.151,1212.449,251.125Z" fill="#323657"/>
      </g>
      <g id="Grupo_744" data-name="Grupo 744">
        <g id="Grupo_743" data-name="Grupo 743">
          <path id="Trazado_1485" data-name="Trazado 1485" d="M1269.093,296.8a74.524,74.524,0,0,1-11.681,2.083c-7.362.811-25.758-.294-25.874-1.163s3.957-32.389,3.726-34.012-.357-7.407-.357-7.407a40.707,40.707,0,0,1-3.654,11.586c-.7,1.275-3.066,5.271-4.2,4.362-5.512-4.4-14.045-20.981-14.586-21.121.454-.2,4.044-1.85,4.548-2.018.441-.147,4.417,4.062,6.825,6.672,1.075,1.163,1.837,2.008,1.837,2.008.7-1.565,3.23-11.425,4.017-14.837,1.776-7.7,1.5-8.016,1.5-8.016,5.386-1.629,13.562-4.946,13.562-4.946l10.787-.439s9.9,2.179,13.8,3.941c.37.166.372,8.832,1.387,11.1l-3.233,6.82s-1.867,13.51-2.255,19.519C1265.063,273.69,1269.093,296.8,1269.093,296.8Z" fill="#feee00"/>
        </g>
      </g>
      <g id="Grupo_745" data-name="Grupo 745">
        <path id="Trazado_1486" data-name="Trazado 1486" d="M1271.177,255.844a4.262,4.262,0,0,1-2.392,2.013,3.085,3.085,0,0,1-1.727.174l-.422-.078h0l-7.393-1.371s-1.618-18.629,10.1-23.092C1269.652,233.59,1273.764,247.5,1271.177,255.844Z" fill="#feee00"/>
      </g>
      <g id="Grupo_746" data-name="Grupo 746">
        <path id="Trazado_1487" data-name="Trazado 1487" d="M1268.785,257.857h0a3.085,3.085,0,0,1-1.727.174l-.422-.078h0l.729-9.519Z" fill="#ab9546"/>
      </g>
      <g id="Grupo_747" data-name="Grupo 747">
        <path id="Trazado_1488" data-name="Trazado 1488" d="M1225.673,257.786l-.9,3.826a30.235,30.235,0,0,1-.934-5.834C1224.911,256.941,1225.673,257.786,1225.673,257.786Z" fill="#ab9546"/>
      </g>
      <g id="Grupo_748" data-name="Grupo 748">
        <path id="Trazado_1489" data-name="Trazado 1489" d="M1256.428,207.513s9.226-1.155.157,14.257Z" fill="#3a3f47"/>
      </g>
      <g id="Grupo_749" data-name="Grupo 749">
        <path id="Trazado_1490" data-name="Trazado 1490" d="M1209.358,231.061l-.938-1.611,7.387-2.549.938,1.6Z" fill="#292c47"/>
      </g>
    </g>
    <g id="Grupo_751" data-name="Grupo 751" opacity="0.95">
      <path id="Trazado_1491" data-name="Trazado 1491" d="M1350.258,162.01h5.234l-1.6-3.323h-5.234Z" fill="url(#linear-gradient-8)"/>
      <path id="Trazado_1492" data-name="Trazado 1492" d="M1347.809,162.01h1.247l-1.6-3.323h-1.247Z" fill="url(#linear-gradient-8)"/>
      <path id="Trazado_1493" data-name="Trazado 1493" d="M1329.727,158.053h21.192l-.7-1.661h-21.192Z" fill="url(#linear-gradient-8)"/>
    </g>
    <g id="Grupo_758" data-name="Grupo 758">
      <g id="Grupo_752" data-name="Grupo 752">
        <rect id="Rectángulo_123" data-name="Rectángulo 123" width="8.98" height="2.706" rx="0.489" transform="translate(1207.427 102.374)" fill="url(#linear-gradient-8)"/>
      </g>
      <g id="Grupo_753" data-name="Grupo 753">
        <rect id="Rectángulo_124" data-name="Rectángulo 124" width="8.98" height="2.706" rx="0.489" transform="translate(1207.427 108.864)" fill="url(#linear-gradient-8)"/>
      </g>
      <g id="Grupo_754" data-name="Grupo 754">
        <rect id="Rectángulo_125" data-name="Rectángulo 125" width="8.98" height="2.706" rx="0.489" transform="translate(1207.427 115.353)" fill="url(#linear-gradient-8)"/>
      </g>
      <g id="Grupo_755" data-name="Grupo 755">
        <rect id="Rectángulo_126" data-name="Rectángulo 126" width="2.555" height="2.706" rx="0.489" transform="translate(1220.115 102.374)" fill="url(#linear-gradient-8)"/>
      </g>
      <g id="Grupo_756" data-name="Grupo 756">
        <rect id="Rectángulo_127" data-name="Rectángulo 127" width="2.555" height="2.706" rx="0.489" transform="translate(1220.115 108.864)" fill="url(#linear-gradient-8)"/>
      </g>
      <g id="Grupo_757" data-name="Grupo 757">
        <rect id="Rectángulo_128" data-name="Rectángulo 128" width="2.555" height="2.706" rx="0.489" transform="translate(1220.115 115.353)" fill="url(#linear-gradient-8)"/>
      </g>
    </g>
    <g id="Grupo_759" data-name="Grupo 759">
      <path id="Trazado_1494" data-name="Trazado 1494" d="M1187.413,251.233h9.394l-2.875-5.964h-9.394Z" fill="url(#linear-gradient-8)"/>
      <path id="Trazado_1495" data-name="Trazado 1495" d="M1183.017,251.233h2.239l-2.875-5.964h-2.239Z" fill="url(#linear-gradient-8)"/>
    </g>
  </g>
</svg>
